<svg xmlns="http://www.w3.org/2000/svg" xmlns:xlink="http://www.w3.org/1999/xlink" width="500" zoomAndPan="magnify" viewBox="0 0 375 374.999991" height="500" preserveAspectRatio="xMidYMid meet" version="1.2"><defs><clipPath id="9b9962d8eb"><path d="M 145 320 L 230 320 L 230 356.25 L 145 356.25 Z M 145 320 "/></clipPath></defs><g id="8b2b3a067d"><path style=" stroke:none;fill-rule:nonzero;fill:#000000;fill-opacity:1;" d="M 183.011719 20.648438 C 181.496094 20.738281 179.988281 20.859375 178.480469 21.015625 C 176.976562 21.171875 175.472656 21.363281 173.976562 21.59375 C 172.476562 21.820312 170.988281 22.082031 169.503906 22.378906 C 168.015625 22.675781 166.539062 23.007812 165.070312 23.375 C 163.601562 23.742188 162.140625 24.140625 160.6875 24.578125 C 159.238281 25.011719 157.796875 25.480469 156.371094 25.984375 C 154.941406 26.484375 153.523438 27.019531 152.121094 27.589844 C 150.714844 28.160156 149.328125 28.761719 147.953125 29.394531 C 146.574219 30.027344 145.214844 30.695312 143.871094 31.390625 C 142.527344 32.089844 141.199219 32.816406 139.890625 33.578125 C 138.578125 34.339844 137.289062 35.128906 136.015625 35.949219 C 134.742188 36.769531 133.488281 37.617188 132.253906 38.496094 C 131.019531 39.378906 129.808594 40.285156 128.617188 41.21875 C 127.425781 42.15625 126.257812 43.121094 125.113281 44.109375 C 123.96875 45.101562 122.847656 46.117188 121.746094 47.160156 C 120.648438 48.203125 119.578125 49.273438 118.527344 50.367188 C 117.480469 51.460938 116.457031 52.578125 115.464844 53.71875 C 114.46875 54.859375 113.5 56.023438 112.558594 57.210938 C 111.617188 58.398438 110.703125 59.605469 109.820312 60.835938 C 108.9375 62.066406 108.082031 63.316406 107.253906 64.585938 C 106.429688 65.855469 105.632812 67.144531 104.867188 68.449219 C 104.101562 69.757812 103.367188 71.082031 102.664062 72.421875 C 101.960938 73.765625 101.289062 75.121094 100.648438 76.496094 C 100.011719 77.867188 99.402344 79.253906 98.828125 80.65625 C 98.253906 82.058594 97.710938 83.472656 97.203125 84.898438 C 96.695312 86.324219 96.21875 87.761719 95.777344 89.210938 C 95.335938 90.660156 94.929688 92.121094 94.558594 93.585938 C 94.183594 95.054688 93.847656 96.53125 93.542969 98.015625 C 93.238281 99.5 92.972656 100.988281 92.738281 102.484375 C 92.503906 103.984375 92.304688 105.484375 92.140625 106.988281 C 91.976562 108.496094 91.851562 110.003906 91.757812 111.515625 C 91.664062 113.027344 91.605469 114.539062 91.585938 116.054688 C 91.5625 120.433594 91.839844 124.796875 92.417969 129.136719 C 92.996094 133.480469 93.867188 137.761719 95.03125 141.984375 C 96.199219 146.207031 97.648438 150.328125 99.378906 154.351562 C 101.109375 158.375 103.109375 162.261719 105.371094 166.007812 C 115.648438 182.355469 124.296875 199.523438 131.3125 217.507812 L 145.910156 256.476562 C 146.125 257.042969 146.421875 257.566406 146.800781 258.046875 C 147.175781 258.527344 147.617188 258.9375 148.117188 259.28125 C 148.621094 259.628906 149.164062 259.890625 149.746094 260.070312 C 150.328125 260.25 150.921875 260.335938 151.53125 260.335938 L 223.46875 260.335938 C 224.078125 260.335938 224.675781 260.246094 225.257812 260.0625 C 225.839844 259.882812 226.382812 259.617188 226.882812 259.269531 C 227.386719 258.925781 227.824219 258.511719 228.199219 258.027344 C 228.574219 257.546875 228.871094 257.023438 229.085938 256.449219 L 243.566406 217.820312 C 249.59375 200.839844 257.5 184.789062 267.289062 169.664062 C 268.511719 167.832031 269.671875 165.957031 270.765625 164.042969 C 271.855469 162.128906 272.882812 160.179688 273.84375 158.195312 C 274.800781 156.210938 275.691406 154.195312 276.511719 152.148438 C 277.332031 150.101562 278.082031 148.03125 278.757812 145.933594 C 279.4375 143.835938 280.039062 141.71875 280.570312 139.578125 C 281.101562 137.4375 281.558594 135.28125 281.941406 133.113281 C 282.324219 130.941406 282.632812 128.757812 282.863281 126.566406 C 283.097656 124.375 283.253906 122.179688 283.335938 119.976562 C 283.414062 117.773438 283.421875 115.570312 283.347656 113.367188 C 283.277344 111.164062 283.128906 108.964844 282.90625 106.769531 C 282.683594 104.578125 282.386719 102.394531 282.015625 100.222656 C 281.640625 98.050781 281.195312 95.894531 280.671875 93.75 C 280.148438 91.609375 279.554688 89.488281 278.886719 87.386719 C 278.21875 85.285156 277.480469 83.210938 276.667969 81.164062 C 275.855469 79.113281 274.976562 77.09375 274.023438 75.105469 C 273.074219 73.117188 272.054688 71.160156 270.972656 69.242188 C 269.886719 67.324219 268.734375 65.445312 267.519531 63.605469 C 266.304688 61.765625 265.03125 59.96875 263.691406 58.21875 C 262.351562 56.46875 260.957031 54.765625 259.5 53.109375 C 258.042969 51.453125 256.53125 49.851562 254.964844 48.300781 C 253.398438 46.75 251.78125 45.253906 250.113281 43.816406 C 248.441406 42.375 246.722656 40.996094 244.960938 39.675781 C 243.195312 38.351562 241.386719 37.09375 239.535156 35.898438 C 237.683594 34.703125 235.792969 33.570312 233.863281 32.503906 C 231.933594 31.4375 229.96875 30.441406 227.972656 29.511719 C 225.972656 28.578125 223.945312 27.71875 221.886719 26.929688 C 219.828125 26.136719 217.746094 25.417969 215.640625 24.773438 C 213.53125 24.125 211.40625 23.550781 209.257812 23.050781 C 207.113281 22.550781 204.949219 22.125 202.773438 21.773438 C 200.597656 21.421875 198.414062 21.144531 196.21875 20.945312 C 194.023438 20.742188 191.824219 20.617188 189.617188 20.570312 C 187.414062 20.519531 185.210938 20.546875 183.011719 20.648438 Z M 169.515625 140.441406 L 163.519531 140.441406 C 163.128906 140.441406 162.738281 140.402344 162.351562 140.328125 C 161.964844 140.25 161.589844 140.136719 161.226562 139.984375 C 160.863281 139.835938 160.519531 139.648438 160.191406 139.429688 C 159.863281 139.210938 159.5625 138.964844 159.28125 138.6875 C 159.003906 138.40625 158.753906 138.105469 158.535156 137.777344 C 158.316406 137.449219 158.132812 137.105469 157.984375 136.742188 C 157.832031 136.378906 157.71875 136.003906 157.640625 135.617188 C 157.566406 135.230469 157.527344 134.839844 157.527344 134.445312 C 157.527344 134.054688 157.566406 133.664062 157.640625 133.277344 C 157.71875 132.890625 157.832031 132.515625 157.984375 132.152344 C 158.132812 131.789062 158.316406 131.445312 158.535156 131.117188 C 158.753906 130.789062 159.003906 130.488281 159.28125 130.207031 C 159.5625 129.929688 159.863281 129.679688 160.191406 129.460938 C 160.519531 129.242188 160.863281 129.058594 161.226562 128.910156 C 161.589844 128.757812 161.964844 128.644531 162.351562 128.566406 C 162.738281 128.492188 163.128906 128.453125 163.519531 128.453125 C 163.914062 128.453125 164.304688 128.492188 164.691406 128.566406 C 165.078125 128.644531 165.453125 128.757812 165.816406 128.910156 C 166.179688 129.058594 166.523438 129.242188 166.851562 129.460938 C 167.179688 129.679688 167.480469 129.929688 167.761719 130.207031 C 168.039062 130.488281 168.285156 130.789062 168.503906 131.117188 C 168.722656 131.445312 168.910156 131.789062 169.058594 132.152344 C 169.210938 132.515625 169.324219 132.890625 169.402344 133.277344 C 169.476562 133.664062 169.515625 134.054688 169.515625 134.445312 Z M 181.503906 248.347656 L 181.503906 152.429688 L 193.496094 152.429688 L 193.496094 248.347656 Z M 257.320312 163.003906 C 247.019531 178.898438 238.6875 195.765625 232.335938 213.605469 L 219.3125 248.347656 L 205.484375 248.347656 L 205.484375 152.429688 L 211.480469 152.429688 C 212.066406 152.429688 212.65625 152.402344 213.242188 152.34375 C 213.828125 152.285156 214.410156 152.199219 214.988281 152.085938 C 215.566406 151.96875 216.136719 151.828125 216.699219 151.65625 C 217.261719 151.484375 217.816406 151.289062 218.359375 151.0625 C 218.90625 150.835938 219.4375 150.585938 219.957031 150.308594 C 220.476562 150.03125 220.980469 149.726562 221.46875 149.398438 C 221.960938 149.074219 222.433594 148.722656 222.886719 148.347656 C 223.34375 147.976562 223.777344 147.582031 224.195312 147.164062 C 224.613281 146.746094 225.007812 146.3125 225.378906 145.855469 C 225.753906 145.402344 226.105469 144.929688 226.433594 144.4375 C 226.757812 143.949219 227.0625 143.445312 227.339844 142.925781 C 227.617188 142.40625 227.867188 141.875 228.09375 141.328125 C 228.320312 140.785156 228.515625 140.230469 228.6875 139.667969 C 228.859375 139.105469 229.003906 138.535156 229.117188 137.957031 C 229.230469 137.378906 229.316406 136.796875 229.375 136.210938 C 229.433594 135.625 229.460938 135.035156 229.460938 134.445312 C 229.460938 133.859375 229.433594 133.269531 229.375 132.683594 C 229.316406 132.097656 229.230469 131.515625 229.117188 130.9375 C 229.003906 130.359375 228.859375 129.789062 228.6875 129.226562 C 228.515625 128.664062 228.320312 128.109375 228.09375 127.566406 C 227.867188 127.019531 227.617188 126.488281 227.339844 125.96875 C 227.0625 125.449219 226.757812 124.945312 226.433594 124.457031 C 226.105469 123.964844 225.753906 123.492188 225.378906 123.039062 C 225.007812 122.582031 224.613281 122.148438 224.195312 121.730469 C 223.777344 121.3125 223.34375 120.917969 222.886719 120.546875 C 222.433594 120.171875 221.960938 119.820312 221.46875 119.492188 C 220.980469 119.167969 220.476562 118.863281 219.957031 118.585938 C 219.4375 118.308594 218.90625 118.058594 218.359375 117.832031 C 217.816406 117.605469 217.261719 117.410156 216.699219 117.238281 C 216.136719 117.066406 215.566406 116.921875 214.988281 116.808594 C 214.410156 116.695312 213.828125 116.609375 213.242188 116.550781 C 212.65625 116.492188 212.066406 116.464844 211.480469 116.464844 C 210.890625 116.464844 210.300781 116.492188 209.714844 116.550781 C 209.128906 116.609375 208.546875 116.695312 207.96875 116.808594 C 207.390625 116.921875 206.820312 117.066406 206.257812 117.238281 C 205.695312 117.410156 205.140625 117.605469 204.597656 117.832031 C 204.050781 118.058594 203.519531 118.308594 203 118.585938 C 202.480469 118.863281 201.976562 119.167969 201.488281 119.492188 C 200.996094 119.820312 200.523438 120.171875 200.070312 120.546875 C 199.613281 120.917969 199.179688 121.3125 198.761719 121.730469 C 198.34375 122.148438 197.949219 122.582031 197.578125 123.039062 C 197.203125 123.492188 196.851562 123.964844 196.527344 124.457031 C 196.199219 124.945312 195.894531 125.449219 195.617188 125.96875 C 195.339844 126.488281 195.089844 127.019531 194.863281 127.566406 C 194.636719 128.109375 194.441406 128.664062 194.269531 129.226562 C 194.097656 129.789062 193.957031 130.359375 193.839844 130.9375 C 193.726562 131.515625 193.640625 132.097656 193.582031 132.683594 C 193.523438 133.269531 193.496094 133.859375 193.496094 134.445312 L 193.496094 140.441406 L 181.503906 140.441406 L 181.503906 134.445312 C 181.503906 133.859375 181.476562 133.269531 181.417969 132.683594 C 181.359375 132.097656 181.273438 131.515625 181.160156 130.9375 C 181.042969 130.359375 180.902344 129.789062 180.730469 129.226562 C 180.558594 128.664062 180.363281 128.109375 180.136719 127.566406 C 179.910156 127.019531 179.660156 126.488281 179.382812 125.96875 C 179.105469 125.449219 178.800781 124.945312 178.472656 124.457031 C 178.148438 123.964844 177.796875 123.492188 177.421875 123.039062 C 177.050781 122.582031 176.65625 122.148438 176.238281 121.730469 C 175.820312 121.3125 175.386719 120.917969 174.929688 120.546875 C 174.476562 120.171875 174.003906 119.820312 173.511719 119.492188 C 173.023438 119.167969 172.519531 118.863281 172 118.585938 C 171.480469 118.308594 170.949219 118.058594 170.402344 117.832031 C 169.859375 117.605469 169.304688 117.410156 168.742188 117.238281 C 168.179688 117.066406 167.609375 116.921875 167.03125 116.808594 C 166.453125 116.695312 165.871094 116.609375 165.285156 116.550781 C 164.699219 116.492188 164.109375 116.464844 163.519531 116.464844 C 162.933594 116.464844 162.34375 116.492188 161.757812 116.550781 C 161.171875 116.609375 160.589844 116.695312 160.011719 116.808594 C 159.433594 116.921875 158.863281 117.066406 158.300781 117.238281 C 157.738281 117.410156 157.183594 117.605469 156.640625 117.832031 C 156.09375 118.058594 155.5625 118.308594 155.042969 118.585938 C 154.523438 118.863281 154.019531 119.167969 153.53125 119.492188 C 153.039062 119.820312 152.566406 120.171875 152.113281 120.546875 C 151.65625 120.917969 151.222656 121.3125 150.804688 121.730469 C 150.386719 122.148438 149.992188 122.582031 149.621094 123.039062 C 149.246094 123.492188 148.894531 123.964844 148.566406 124.457031 C 148.242188 124.945312 147.9375 125.449219 147.660156 125.96875 C 147.382812 126.488281 147.132812 127.019531 146.90625 127.566406 C 146.679688 128.109375 146.484375 128.664062 146.3125 129.226562 C 146.140625 129.789062 145.996094 130.359375 145.882812 130.9375 C 145.769531 131.515625 145.679688 132.097656 145.625 132.683594 C 145.566406 133.269531 145.539062 133.859375 145.539062 134.445312 C 145.539062 135.035156 145.566406 135.625 145.625 136.210938 C 145.679688 136.796875 145.769531 137.378906 145.882812 137.957031 C 145.996094 138.535156 146.140625 139.105469 146.3125 139.667969 C 146.484375 140.230469 146.679688 140.785156 146.90625 141.328125 C 147.132812 141.875 147.382812 142.40625 147.660156 142.925781 C 147.9375 143.445312 148.242188 143.949219 148.566406 144.4375 C 148.894531 144.929688 149.246094 145.402344 149.621094 145.855469 C 149.992188 146.3125 150.386719 146.746094 150.804688 147.164062 C 151.222656 147.582031 151.65625 147.976562 152.113281 148.347656 C 152.566406 148.722656 153.039062 149.074219 153.53125 149.398438 C 154.019531 149.726562 154.523438 150.03125 155.042969 150.308594 C 155.5625 150.585938 156.09375 150.835938 156.640625 151.0625 C 157.183594 151.289062 157.738281 151.484375 158.300781 151.65625 C 158.863281 151.828125 159.433594 151.96875 160.011719 152.085938 C 160.589844 152.199219 161.171875 152.285156 161.757812 152.34375 C 162.34375 152.402344 162.933594 152.429688 163.519531 152.429688 L 169.515625 152.429688 L 169.515625 248.347656 L 155.6875 248.347656 L 142.539062 213.296875 C 135.261719 194.613281 126.292969 176.777344 115.628906 159.796875 C 113.648438 156.519531 111.902344 153.117188 110.386719 149.597656 C 108.875 146.078125 107.609375 142.472656 106.589844 138.78125 C 105.570312 135.085938 104.808594 131.339844 104.304688 127.542969 C 103.796875 123.742188 103.554688 119.929688 103.574219 116.097656 C 103.59375 114.773438 103.644531 113.449219 103.726562 112.125 C 103.808594 110.804688 103.917969 109.484375 104.0625 108.167969 C 104.207031 106.847656 104.378906 105.535156 104.582031 104.226562 C 104.789062 102.917969 105.023438 101.613281 105.289062 100.316406 C 105.554688 99.015625 105.851562 97.726562 106.175781 96.441406 C 106.503906 95.15625 106.859375 93.882812 107.246094 92.613281 C 107.632812 91.347656 108.046875 90.089844 108.492188 88.839844 C 108.9375 87.59375 109.410156 86.355469 109.914062 85.128906 C 110.417969 83.902344 110.949219 82.6875 111.507812 81.488281 C 112.070312 80.289062 112.65625 79.101562 113.273438 77.925781 C 113.886719 76.753906 114.53125 75.59375 115.199219 74.449219 C 115.871094 73.308594 116.566406 72.179688 117.289062 71.070312 C 118.011719 69.960938 118.757812 68.867188 119.53125 67.789062 C 120.304688 66.714844 121.105469 65.65625 121.929688 64.617188 C 122.75 63.582031 123.597656 62.5625 124.46875 61.5625 C 125.339844 60.566406 126.234375 59.585938 127.152344 58.628906 C 128.066406 57.671875 129.007812 56.738281 129.96875 55.828125 C 130.929688 54.914062 131.910156 54.023438 132.910156 53.15625 C 133.914062 52.289062 134.9375 51.449219 135.976562 50.628906 C 137.019531 49.808594 138.078125 49.015625 139.160156 48.246094 C 140.238281 47.476562 141.335938 46.734375 142.449219 46.015625 C 143.5625 45.296875 144.691406 44.605469 145.839844 43.941406 C 146.984375 43.277344 148.144531 42.640625 149.320312 42.027344 C 150.496094 41.417969 151.6875 40.835938 152.890625 40.28125 C 154.09375 39.726562 155.308594 39.199219 156.539062 38.703125 C 157.765625 38.203125 159.003906 37.734375 160.253906 37.296875 C 161.503906 36.855469 162.765625 36.445312 164.035156 36.066406 C 165.304688 35.683594 166.582031 35.335938 167.867188 35.011719 C 169.152344 34.691406 170.445312 34.402344 171.742188 34.140625 C 173.042969 33.882812 174.347656 33.652344 175.65625 33.453125 C 176.96875 33.253906 178.28125 33.085938 179.601562 32.949219 C 180.917969 32.808594 182.238281 32.703125 183.5625 32.628906 C 185.488281 32.539062 187.414062 32.515625 189.34375 32.558594 C 191.269531 32.601562 193.195312 32.710938 195.117188 32.886719 C 197.035156 33.0625 198.949219 33.304688 200.851562 33.613281 C 202.757812 33.921875 204.648438 34.292969 206.523438 34.730469 C 208.402344 35.167969 210.265625 35.671875 212.109375 36.238281 C 213.949219 36.804688 215.773438 37.433594 217.574219 38.125 C 219.371094 38.816406 221.148438 39.570312 222.894531 40.386719 C 224.644531 41.199219 226.363281 42.074219 228.050781 43.003906 C 229.738281 43.9375 231.390625 44.929688 233.011719 45.976562 C 234.628906 47.023438 236.210938 48.121094 237.757812 49.277344 C 239.300781 50.433594 240.800781 51.640625 242.261719 52.902344 C 243.722656 54.160156 245.140625 55.46875 246.507812 56.824219 C 247.878906 58.183594 249.203125 59.585938 250.476562 61.035156 C 251.75 62.480469 252.972656 63.972656 254.140625 65.503906 C 255.3125 67.035156 256.429688 68.605469 257.492188 70.214844 C 258.554688 71.824219 259.5625 73.46875 260.511719 75.148438 C 261.460938 76.828125 262.351562 78.535156 263.183594 80.277344 C 264.015625 82.015625 264.785156 83.78125 265.496094 85.578125 C 266.203125 87.371094 266.851562 89.183594 267.4375 91.023438 C 268.019531 92.859375 268.539062 94.714844 268.996094 96.589844 C 269.453125 98.464844 269.847656 100.351562 270.171875 102.25 C 270.5 104.152344 270.757812 106.0625 270.953125 107.980469 C 271.148438 109.898438 271.277344 111.820312 271.339844 113.75 C 271.402344 115.675781 271.398438 117.605469 271.328125 119.53125 C 271.257812 121.457031 271.121094 123.382812 270.917969 125.300781 C 270.714844 127.21875 270.445312 129.125 270.113281 131.023438 C 269.777344 132.925781 269.378906 134.808594 268.914062 136.679688 C 268.449219 138.554688 267.917969 140.40625 267.328125 142.242188 C 266.734375 144.078125 266.078125 145.890625 265.363281 147.679688 C 264.644531 149.46875 263.867188 151.234375 263.027344 152.96875 C 262.1875 154.707031 261.292969 156.410156 260.335938 158.085938 C 259.378906 159.761719 258.367188 161.402344 257.296875 163.003906 Z M 205.484375 140.441406 L 205.484375 134.445312 C 205.484375 134.054688 205.523438 133.664062 205.597656 133.277344 C 205.675781 132.890625 205.789062 132.515625 205.941406 132.152344 C 206.089844 131.789062 206.277344 131.445312 206.496094 131.117188 C 206.714844 130.789062 206.960938 130.488281 207.238281 130.207031 C 207.519531 129.929688 207.820312 129.679688 208.148438 129.460938 C 208.476562 129.242188 208.820312 129.058594 209.183594 128.910156 C 209.546875 128.757812 209.921875 128.644531 210.308594 128.566406 C 210.695312 128.492188 211.085938 128.453125 211.480469 128.453125 C 211.871094 128.453125 212.261719 128.492188 212.648438 128.566406 C 213.035156 128.644531 213.410156 128.757812 213.773438 128.910156 C 214.136719 129.058594 214.480469 129.242188 214.808594 129.460938 C 215.136719 129.679688 215.4375 129.929688 215.71875 130.207031 C 215.996094 130.488281 216.246094 130.789062 216.464844 131.117188 C 216.683594 131.445312 216.867188 131.789062 217.015625 132.152344 C 217.167969 132.515625 217.28125 132.890625 217.359375 133.277344 C 217.433594 133.664062 217.472656 134.054688 217.472656 134.445312 C 217.472656 134.839844 217.433594 135.230469 217.359375 135.617188 C 217.28125 136.003906 217.167969 136.378906 217.015625 136.742188 C 216.867188 137.105469 216.683594 137.449219 216.464844 137.777344 C 216.246094 138.105469 215.996094 138.40625 215.71875 138.6875 C 215.4375 138.964844 215.136719 139.210938 214.808594 139.429688 C 214.480469 139.648438 214.136719 139.835938 213.773438 139.984375 C 213.410156 140.136719 213.035156 140.25 212.648438 140.328125 C 212.261719 140.402344 211.871094 140.441406 211.480469 140.441406 Z M 205.484375 140.441406 "/><path style=" stroke:none;fill-rule:nonzero;fill:#000000;fill-opacity:1;" d="M 184.132812 44.605469 C 176.203125 44.96875 168.5625 46.632812 161.203125 49.597656 L 165.671875 60.71875 C 171.773438 58.261719 178.113281 56.882812 184.683594 56.582031 C 187.554688 56.453125 190.421875 56.535156 193.285156 56.816406 C 196.144531 57.101562 198.972656 57.589844 201.765625 58.277344 C 204.554688 58.96875 207.285156 59.855469 209.949219 60.9375 C 212.613281 62.019531 215.1875 63.285156 217.667969 64.738281 C 220.152344 66.191406 222.519531 67.8125 224.769531 69.601562 C 227.019531 71.394531 229.128906 73.335938 231.097656 75.433594 C 233.070312 77.527344 234.878906 79.75 236.53125 82.105469 C 238.183594 84.460938 239.65625 86.921875 240.953125 89.488281 L 251.65625 84.09375 C 250.875 82.554688 250.042969 81.050781 249.15625 79.574219 C 248.265625 78.097656 247.328125 76.652344 246.339844 75.242188 C 245.347656 73.832031 244.308594 72.460938 243.21875 71.125 C 242.128906 69.789062 240.996094 68.496094 239.8125 67.242188 C 238.632812 65.988281 237.40625 64.777344 236.140625 63.613281 C 234.871094 62.445312 233.5625 61.324219 232.214844 60.253906 C 230.867188 59.179688 229.484375 58.15625 228.0625 57.183594 C 226.640625 56.210938 225.1875 55.289062 223.699219 54.417969 C 222.210938 53.550781 220.695312 52.734375 219.152344 51.972656 C 217.605469 51.210938 216.035156 50.507812 214.4375 49.859375 C 212.84375 49.207031 211.226562 48.617188 209.585938 48.085938 C 207.949219 47.550781 206.292969 47.078125 204.621094 46.664062 C 202.949219 46.25 201.265625 45.894531 199.566406 45.597656 C 197.871094 45.304688 196.164062 45.070312 194.449219 44.898438 C 192.734375 44.726562 191.019531 44.617188 189.296875 44.566406 C 187.574219 44.519531 185.851562 44.53125 184.132812 44.605469 Z M 184.132812 44.605469 "/><path style=" stroke:none;fill-rule:nonzero;fill:#000000;fill-opacity:1;" d="M 247.199219 111.285156 L 259.140625 110.203125 C 258.730469 105.65625 257.902344 101.1875 256.648438 96.792969 L 245.113281 100.085938 C 246.160156 103.753906 246.855469 107.484375 247.199219 111.285156 Z M 247.199219 111.285156 "/><path style=" stroke:none;fill-rule:nonzero;fill:#000000;fill-opacity:1;" d="M 223.46875 272.324219 L 151.53125 272.324219 C 151.136719 272.324219 150.75 272.363281 150.363281 272.441406 C 149.976562 272.515625 149.601562 272.628906 149.238281 272.78125 C 148.875 272.929688 148.527344 273.117188 148.203125 273.335938 C 147.875 273.554688 147.570312 273.800781 147.292969 274.082031 C 147.015625 274.359375 146.765625 274.660156 146.546875 274.988281 C 146.328125 275.316406 146.144531 275.660156 145.992188 276.023438 C 145.84375 276.390625 145.730469 276.761719 145.652344 277.148438 C 145.574219 277.535156 145.539062 277.925781 145.539062 278.320312 C 145.539062 278.710938 145.574219 279.101562 145.652344 279.488281 C 145.730469 279.875 145.84375 280.25 145.992188 280.613281 C 146.144531 280.976562 146.328125 281.324219 146.546875 281.648438 C 146.765625 281.976562 147.015625 282.28125 147.292969 282.558594 C 147.570312 282.835938 147.875 283.085938 148.203125 283.304688 C 148.527344 283.523438 148.875 283.707031 149.238281 283.859375 C 149.601562 284.007812 149.976562 284.121094 150.363281 284.199219 C 150.75 284.277344 151.136719 284.3125 151.53125 284.3125 L 223.46875 284.3125 C 223.863281 284.3125 224.25 284.277344 224.636719 284.199219 C 225.023438 284.121094 225.398438 284.007812 225.761719 283.859375 C 226.125 283.707031 226.472656 283.523438 226.796875 283.304688 C 227.125 283.085938 227.429688 282.835938 227.707031 282.558594 C 227.984375 282.28125 228.234375 281.976562 228.453125 281.648438 C 228.671875 281.324219 228.855469 280.976562 229.007812 280.613281 C 229.15625 280.25 229.269531 279.875 229.347656 279.488281 C 229.425781 279.101562 229.460938 278.710938 229.460938 278.320312 C 229.460938 277.925781 229.425781 277.535156 229.347656 277.148438 C 229.269531 276.765625 229.15625 276.390625 229.007812 276.023438 C 228.855469 275.660156 228.671875 275.316406 228.453125 274.988281 C 228.234375 274.660156 227.984375 274.359375 227.707031 274.082031 C 227.429688 273.800781 227.125 273.554688 226.796875 273.335938 C 226.472656 273.117188 226.125 272.929688 225.761719 272.78125 C 225.398438 272.628906 225.023438 272.515625 224.636719 272.441406 C 224.25 272.363281 223.863281 272.324219 223.46875 272.324219 Z M 223.46875 272.324219 "/><path style=" stroke:none;fill-rule:nonzero;fill:#000000;fill-opacity:1;" d="M 223.46875 296.304688 L 151.53125 296.304688 C 151.136719 296.304688 150.75 296.339844 150.363281 296.417969 C 149.976562 296.496094 149.601562 296.609375 149.238281 296.757812 C 148.875 296.910156 148.527344 297.09375 148.203125 297.3125 C 147.875 297.53125 147.570312 297.78125 147.292969 298.058594 C 147.015625 298.335938 146.765625 298.640625 146.546875 298.96875 C 146.328125 299.292969 146.144531 299.640625 145.992188 300.003906 C 145.84375 300.367188 145.730469 300.742188 145.652344 301.128906 C 145.574219 301.515625 145.539062 301.90625 145.539062 302.296875 C 145.539062 302.691406 145.574219 303.082031 145.652344 303.46875 C 145.730469 303.851562 145.84375 304.226562 145.992188 304.59375 C 146.144531 304.957031 146.328125 305.300781 146.546875 305.628906 C 146.765625 305.957031 147.015625 306.257812 147.292969 306.535156 C 147.570312 306.816406 147.875 307.0625 148.203125 307.28125 C 148.527344 307.5 148.875 307.6875 149.238281 307.835938 C 149.601562 307.988281 149.976562 308.101562 150.363281 308.175781 C 150.75 308.253906 151.136719 308.292969 151.53125 308.292969 L 223.46875 308.292969 C 223.863281 308.292969 224.25 308.253906 224.636719 308.175781 C 225.023438 308.101562 225.398438 307.988281 225.761719 307.835938 C 226.125 307.6875 226.472656 307.5 226.796875 307.28125 C 227.125 307.0625 227.429688 306.816406 227.707031 306.535156 C 227.984375 306.257812 228.234375 305.957031 228.453125 305.628906 C 228.671875 305.300781 228.855469 304.957031 229.007812 304.59375 C 229.15625 304.226562 229.269531 303.851562 229.347656 303.46875 C 229.425781 303.082031 229.460938 302.691406 229.460938 302.296875 C 229.460938 301.90625 229.425781 301.515625 229.347656 301.128906 C 229.269531 300.742188 229.15625 300.367188 229.007812 300.003906 C 228.855469 299.640625 228.671875 299.292969 228.453125 298.96875 C 228.234375 298.640625 227.984375 298.335938 227.707031 298.058594 C 227.429688 297.78125 227.125 297.53125 226.796875 297.3125 C 226.472656 297.09375 226.125 296.910156 225.761719 296.757812 C 225.398438 296.609375 225.023438 296.496094 224.636719 296.417969 C 224.25 296.339844 223.863281 296.304688 223.46875 296.304688 Z M 223.46875 296.304688 "/><g clip-rule="nonzero" clip-path="url(#9b9962d8eb)"><path style=" stroke:none;fill-rule:nonzero;fill:#000000;fill-opacity:1;" d="M 223.46875 320.28125 L 151.53125 320.28125 C 151.136719 320.28125 150.75 320.320312 150.363281 320.398438 C 149.976562 320.472656 149.601562 320.585938 149.238281 320.738281 C 148.875 320.890625 148.527344 321.074219 148.203125 321.292969 C 147.875 321.511719 147.570312 321.757812 147.292969 322.039062 C 147.015625 322.316406 146.765625 322.617188 146.546875 322.945312 C 146.328125 323.273438 146.144531 323.617188 145.992188 323.984375 C 145.84375 324.347656 145.730469 324.722656 145.652344 325.105469 C 145.574219 325.492188 145.539062 325.882812 145.539062 326.277344 C 145.539062 326.671875 145.574219 327.058594 145.652344 327.445312 C 145.730469 327.832031 145.84375 328.207031 145.992188 328.570312 C 146.144531 328.933594 146.328125 329.28125 146.546875 329.605469 C 146.765625 329.933594 147.015625 330.238281 147.292969 330.515625 C 147.570312 330.792969 147.875 331.042969 148.203125 331.261719 C 148.527344 331.480469 148.875 331.664062 149.238281 331.816406 C 149.601562 331.964844 149.976562 332.078125 150.363281 332.15625 C 150.75 332.234375 151.136719 332.269531 151.53125 332.269531 L 158.125 332.269531 C 158.296875 333.109375 158.503906 333.941406 158.742188 334.761719 C 158.984375 335.582031 159.261719 336.394531 159.574219 337.191406 C 159.882812 337.988281 160.226562 338.773438 160.605469 339.539062 C 160.984375 340.308594 161.394531 341.058594 161.835938 341.792969 C 162.28125 342.527344 162.753906 343.238281 163.257812 343.929688 C 163.757812 344.625 164.292969 345.292969 164.851562 345.941406 C 165.414062 346.589844 166 347.210938 166.617188 347.804688 C 167.230469 348.402344 167.867188 348.972656 168.53125 349.515625 C 169.195312 350.054688 169.878906 350.570312 170.585938 351.050781 C 171.292969 351.535156 172.019531 351.988281 172.765625 352.40625 C 173.511719 352.828125 174.273438 353.21875 175.050781 353.574219 C 175.832031 353.929688 176.625 354.25 177.429688 354.539062 C 178.238281 354.824219 179.054688 355.078125 179.882812 355.296875 C 180.710938 355.511719 181.546875 355.695312 182.390625 355.839844 C 183.234375 355.988281 184.082031 356.097656 184.9375 356.171875 C 185.789062 356.242188 186.644531 356.28125 187.5 356.28125 C 188.355469 356.28125 189.210938 356.242188 190.0625 356.171875 C 190.917969 356.097656 191.765625 355.988281 192.609375 355.839844 C 193.453125 355.695312 194.289062 355.511719 195.117188 355.296875 C 195.945312 355.078125 196.761719 354.824219 197.570312 354.539062 C 198.375 354.25 199.167969 353.929688 199.949219 353.574219 C 200.726562 353.21875 201.488281 352.828125 202.234375 352.40625 C 202.980469 351.988281 203.707031 351.535156 204.414062 351.050781 C 205.121094 350.570312 205.804688 350.054688 206.46875 349.515625 C 207.132812 348.972656 207.769531 348.402344 208.382812 347.804688 C 209 347.210938 209.585938 346.589844 210.148438 345.941406 C 210.707031 345.292969 211.242188 344.625 211.742188 343.929688 C 212.246094 343.238281 212.71875 342.527344 213.164062 341.792969 C 213.605469 341.058594 214.015625 340.308594 214.394531 339.539062 C 214.773438 338.773438 215.117188 337.988281 215.425781 337.191406 C 215.738281 336.394531 216.015625 335.582031 216.257812 334.761719 C 216.496094 333.941406 216.703125 333.109375 216.875 332.269531 L 223.46875 332.269531 C 223.863281 332.269531 224.25 332.234375 224.636719 332.15625 C 225.023438 332.078125 225.398438 331.964844 225.761719 331.816406 C 226.125 331.664062 226.472656 331.480469 226.796875 331.261719 C 227.125 331.042969 227.429688 330.792969 227.707031 330.515625 C 227.984375 330.238281 228.234375 329.933594 228.453125 329.605469 C 228.671875 329.28125 228.855469 328.933594 229.007812 328.570312 C 229.15625 328.207031 229.269531 327.832031 229.347656 327.445312 C 229.425781 327.058594 229.460938 326.671875 229.460938 326.277344 C 229.460938 325.882812 229.425781 325.492188 229.347656 325.105469 C 229.269531 324.722656 229.15625 324.347656 229.007812 323.984375 C 228.855469 323.617188 228.671875 323.273438 228.453125 322.945312 C 228.234375 322.617188 227.984375 322.316406 227.707031 322.039062 C 227.429688 321.757812 227.125 321.511719 226.796875 321.292969 C 226.472656 321.074219 226.125 320.890625 225.761719 320.738281 C 225.398438 320.585938 225.023438 320.472656 224.636719 320.398438 C 224.25 320.320312 223.863281 320.28125 223.46875 320.28125 Z M 187.5 344.261719 C 186.578125 344.257812 185.664062 344.183594 184.753906 344.039062 C 183.84375 343.894531 182.949219 343.679688 182.074219 343.398438 C 181.195312 343.117188 180.347656 342.769531 179.523438 342.359375 C 178.699219 341.945312 177.910156 341.472656 177.160156 340.9375 C 176.410156 340.40625 175.703125 339.816406 175.042969 339.175781 C 174.382812 338.535156 173.773438 337.847656 173.21875 337.109375 C 172.664062 336.375 172.167969 335.601562 171.734375 334.789062 C 171.296875 333.980469 170.925781 333.140625 170.617188 332.269531 L 204.382812 332.269531 C 204.074219 333.140625 203.703125 333.980469 203.265625 334.789062 C 202.832031 335.601562 202.335938 336.375 201.78125 337.109375 C 201.226562 337.847656 200.617188 338.535156 199.957031 339.175781 C 199.296875 339.816406 198.589844 340.40625 197.839844 340.9375 C 197.089844 341.472656 196.300781 341.945312 195.476562 342.359375 C 194.652344 342.769531 193.804688 343.117188 192.925781 343.398438 C 192.050781 343.679688 191.15625 343.894531 190.246094 344.039062 C 189.335938 344.183594 188.421875 344.257812 187.5 344.261719 Z M 187.5 344.261719 "/></g><path style=" stroke:none;fill-rule:nonzero;fill:#000000;fill-opacity:1;" d="M 349.355469 98.480469 L 313.386719 98.480469 C 312.996094 98.480469 312.605469 98.515625 312.21875 98.59375 C 311.832031 98.671875 311.457031 98.785156 311.09375 98.933594 C 310.730469 99.085938 310.386719 99.269531 310.058594 99.488281 C 309.730469 99.707031 309.425781 99.957031 309.148438 100.234375 C 308.871094 100.511719 308.621094 100.816406 308.402344 101.144531 C 308.183594 101.46875 308 101.816406 307.851562 102.179688 C 307.699219 102.542969 307.585938 102.917969 307.507812 103.304688 C 307.433594 103.691406 307.394531 104.082031 307.394531 104.472656 C 307.394531 104.867188 307.433594 105.257812 307.507812 105.644531 C 307.585938 106.03125 307.699219 106.402344 307.851562 106.769531 C 308 107.132812 308.183594 107.476562 308.402344 107.804688 C 308.621094 108.132812 308.871094 108.433594 309.148438 108.710938 C 309.425781 108.992188 309.730469 109.238281 310.058594 109.457031 C 310.386719 109.675781 310.730469 109.863281 311.09375 110.011719 C 311.457031 110.164062 311.832031 110.277344 312.21875 110.351562 C 312.605469 110.429688 312.996094 110.46875 313.386719 110.46875 L 349.355469 110.46875 C 349.75 110.46875 350.140625 110.429688 350.527344 110.351562 C 350.910156 110.277344 351.285156 110.164062 351.648438 110.011719 C 352.015625 109.863281 352.359375 109.675781 352.6875 109.457031 C 353.015625 109.238281 353.316406 108.992188 353.59375 108.710938 C 353.875 108.433594 354.121094 108.132812 354.339844 107.804688 C 354.558594 107.476562 354.742188 107.132812 354.894531 106.769531 C 355.046875 106.402344 355.160156 106.03125 355.234375 105.644531 C 355.3125 105.257812 355.351562 104.867188 355.351562 104.472656 C 355.351562 104.082031 355.3125 103.691406 355.234375 103.304688 C 355.160156 102.917969 355.046875 102.542969 354.894531 102.179688 C 354.742188 101.816406 354.558594 101.46875 354.339844 101.144531 C 354.121094 100.816406 353.875 100.511719 353.59375 100.234375 C 353.316406 99.957031 353.015625 99.707031 352.6875 99.488281 C 352.359375 99.269531 352.015625 99.085938 351.648438 98.933594 C 351.285156 98.785156 350.910156 98.671875 350.527344 98.59375 C 350.140625 98.515625 349.75 98.480469 349.355469 98.480469 Z M 349.355469 98.480469 "/><path style=" stroke:none;fill-rule:nonzero;fill:#000000;fill-opacity:1;" d="M 352.035156 153.0625 L 316.066406 135.078125 C 315.714844 134.902344 315.347656 134.761719 314.96875 134.65625 C 314.589844 134.554688 314.203125 134.488281 313.8125 134.460938 C 313.417969 134.433594 313.027344 134.445312 312.636719 134.496094 C 312.246094 134.542969 311.863281 134.632812 311.492188 134.757812 C 311.117188 134.882812 310.761719 135.042969 310.417969 135.238281 C 310.078125 135.433594 309.757812 135.660156 309.460938 135.917969 C 309.164062 136.175781 308.894531 136.457031 308.652344 136.769531 C 308.410156 137.082031 308.203125 137.414062 308.027344 137.765625 C 307.851562 138.117188 307.710938 138.484375 307.609375 138.863281 C 307.503906 139.242188 307.4375 139.628906 307.410156 140.019531 C 307.382812 140.414062 307.394531 140.804688 307.441406 141.195312 C 307.492188 141.585938 307.578125 141.96875 307.703125 142.339844 C 307.828125 142.714844 307.988281 143.070312 308.183594 143.414062 C 308.378906 143.753906 308.605469 144.074219 308.863281 144.371094 C 309.121094 144.671875 309.402344 144.9375 309.714844 145.179688 C 310.023438 145.421875 310.355469 145.632812 310.707031 145.808594 L 346.675781 163.792969 C 347.027344 163.96875 347.394531 164.109375 347.773438 164.210938 C 348.15625 164.316406 348.542969 164.382812 348.933594 164.410156 C 349.328125 164.4375 349.71875 164.425781 350.109375 164.378906 C 350.5 164.328125 350.882812 164.242188 351.257812 164.117188 C 351.632812 163.992188 351.988281 163.832031 352.332031 163.636719 C 352.675781 163.441406 352.992188 163.214844 353.292969 162.957031 C 353.589844 162.699219 353.859375 162.414062 354.101562 162.105469 C 354.339844 161.792969 354.550781 161.460938 354.726562 161.109375 C 354.902344 160.753906 355.042969 160.390625 355.144531 160.007812 C 355.25 159.628906 355.316406 159.242188 355.34375 158.847656 C 355.371094 158.457031 355.359375 158.0625 355.308594 157.671875 C 355.261719 157.28125 355.171875 156.898438 355.046875 156.527344 C 354.921875 156.152344 354.761719 155.796875 354.566406 155.453125 C 354.371094 155.109375 354.144531 154.792969 353.886719 154.492188 C 353.628906 154.195312 353.34375 153.925781 353.03125 153.6875 C 352.71875 153.445312 352.386719 153.238281 352.035156 153.0625 Z M 352.035156 153.0625 "/><path style=" stroke:none;fill-rule:nonzero;fill:#000000;fill-opacity:1;" d="M 308.023438 71.183594 C 308.199219 71.539062 308.40625 71.871094 308.648438 72.179688 C 308.890625 72.492188 309.160156 72.777344 309.457031 73.035156 C 309.753906 73.292969 310.074219 73.519531 310.414062 73.714844 C 310.757812 73.910156 311.113281 74.070312 311.488281 74.195312 C 311.863281 74.320312 312.246094 74.40625 312.636719 74.457031 C 313.027344 74.503906 313.417969 74.515625 313.808594 74.488281 C 314.203125 74.460938 314.589844 74.394531 314.96875 74.292969 C 315.347656 74.1875 315.714844 74.046875 316.066406 73.871094 L 352.035156 55.886719 C 352.386719 55.710938 352.71875 55.503906 353.03125 55.261719 C 353.34375 55.019531 353.625 54.75 353.886719 54.453125 C 354.144531 54.15625 354.371094 53.835938 354.566406 53.492188 C 354.761719 53.152344 354.921875 52.792969 355.042969 52.421875 C 355.167969 52.046875 355.257812 51.664062 355.304688 51.273438 C 355.355469 50.882812 355.367188 50.492188 355.339844 50.097656 C 355.3125 49.707031 355.246094 49.320312 355.140625 48.941406 C 355.039062 48.558594 354.898438 48.195312 354.722656 47.84375 C 354.546875 47.488281 354.335938 47.15625 354.09375 46.847656 C 353.855469 46.535156 353.585938 46.25 353.289062 45.992188 C 352.988281 45.734375 352.671875 45.507812 352.328125 45.3125 C 351.988281 45.117188 351.628906 44.957031 351.253906 44.832031 C 350.882812 44.707031 350.5 44.621094 350.109375 44.570312 C 349.71875 44.523438 349.328125 44.511719 348.933594 44.539062 C 348.539062 44.566406 348.15625 44.632812 347.773438 44.738281 C 347.394531 44.839844 347.027344 44.980469 346.675781 45.15625 L 310.707031 63.140625 C 310.355469 63.316406 310.023438 63.523438 309.710938 63.765625 C 309.402344 64.007812 309.117188 64.277344 308.859375 64.574219 C 308.601562 64.871094 308.375 65.191406 308.179688 65.53125 C 307.984375 65.875 307.824219 66.234375 307.699219 66.605469 C 307.574219 66.980469 307.488281 67.363281 307.4375 67.753906 C 307.386719 68.144531 307.378906 68.535156 307.40625 68.929688 C 307.433594 69.320312 307.5 69.707031 307.601562 70.085938 C 307.707031 70.46875 307.847656 70.832031 308.023438 71.183594 Z M 308.023438 71.183594 "/><path style=" stroke:none;fill-rule:nonzero;fill:#000000;fill-opacity:1;" d="M 61.613281 98.480469 L 25.644531 98.480469 C 25.25 98.480469 24.859375 98.515625 24.472656 98.59375 C 24.089844 98.671875 23.714844 98.785156 23.351562 98.933594 C 22.984375 99.085938 22.640625 99.269531 22.3125 99.488281 C 21.984375 99.707031 21.683594 99.957031 21.40625 100.234375 C 21.125 100.511719 20.878906 100.816406 20.660156 101.144531 C 20.441406 101.46875 20.257812 101.816406 20.105469 102.179688 C 19.953125 102.542969 19.839844 102.917969 19.765625 103.304688 C 19.6875 103.691406 19.648438 104.082031 19.648438 104.472656 C 19.648438 104.867188 19.6875 105.257812 19.765625 105.644531 C 19.839844 106.03125 19.953125 106.402344 20.105469 106.769531 C 20.257812 107.132812 20.441406 107.476562 20.660156 107.804688 C 20.878906 108.132812 21.125 108.433594 21.40625 108.710938 C 21.683594 108.992188 21.984375 109.238281 22.3125 109.457031 C 22.640625 109.675781 22.984375 109.863281 23.351562 110.011719 C 23.714844 110.164062 24.089844 110.277344 24.472656 110.351562 C 24.859375 110.429688 25.25 110.46875 25.644531 110.46875 L 61.613281 110.46875 C 62.003906 110.46875 62.394531 110.429688 62.78125 110.351562 C 63.167969 110.277344 63.542969 110.164062 63.90625 110.011719 C 64.269531 109.863281 64.613281 109.675781 64.941406 109.457031 C 65.269531 109.238281 65.574219 108.992188 65.851562 108.710938 C 66.128906 108.433594 66.378906 108.132812 66.597656 107.804688 C 66.816406 107.476562 67 107.132812 67.148438 106.769531 C 67.300781 106.402344 67.414062 106.03125 67.492188 105.644531 C 67.566406 105.257812 67.605469 104.867188 67.605469 104.472656 C 67.605469 104.082031 67.566406 103.691406 67.492188 103.304688 C 67.414062 102.917969 67.300781 102.542969 67.148438 102.179688 C 67 101.816406 66.816406 101.46875 66.597656 101.144531 C 66.378906 100.816406 66.128906 100.511719 65.851562 100.234375 C 65.574219 99.957031 65.269531 99.707031 64.941406 99.488281 C 64.613281 99.269531 64.269531 99.085938 63.90625 98.933594 C 63.542969 98.785156 63.167969 98.671875 62.78125 98.59375 C 62.394531 98.515625 62.003906 98.480469 61.613281 98.480469 Z M 61.613281 98.480469 "/><path style=" stroke:none;fill-rule:nonzero;fill:#000000;fill-opacity:1;" d="M 58.933594 135.078125 L 22.964844 153.0625 C 22.613281 153.238281 22.28125 153.445312 21.96875 153.6875 C 21.65625 153.925781 21.375 154.195312 21.113281 154.496094 C 20.855469 154.792969 20.628906 155.113281 20.433594 155.453125 C 20.238281 155.796875 20.078125 156.152344 19.957031 156.527344 C 19.832031 156.898438 19.742188 157.28125 19.695312 157.671875 C 19.644531 158.0625 19.632812 158.457031 19.660156 158.847656 C 19.6875 159.242188 19.753906 159.628906 19.859375 160.007812 C 19.960938 160.386719 20.101562 160.753906 20.277344 161.105469 C 20.453125 161.457031 20.664062 161.789062 20.90625 162.101562 C 21.144531 162.410156 21.414062 162.695312 21.710938 162.953125 C 22.011719 163.210938 22.328125 163.4375 22.671875 163.632812 C 23.011719 163.828125 23.371094 163.988281 23.746094 164.113281 C 24.117188 164.238281 24.5 164.324219 24.890625 164.375 C 25.28125 164.425781 25.671875 164.4375 26.066406 164.40625 C 26.460938 164.378906 26.84375 164.316406 27.226562 164.210938 C 27.605469 164.105469 27.972656 163.96875 28.324219 163.792969 L 64.292969 145.808594 C 64.644531 145.632812 64.976562 145.421875 65.289062 145.183594 C 65.597656 144.941406 65.882812 144.671875 66.144531 144.375 C 66.402344 144.078125 66.628906 143.757812 66.824219 143.414062 C 67.019531 143.074219 67.179688 142.714844 67.304688 142.339844 C 67.429688 141.96875 67.515625 141.585938 67.566406 141.195312 C 67.617188 140.804688 67.625 140.410156 67.597656 140.019531 C 67.570312 139.625 67.503906 139.238281 67.402344 138.859375 C 67.296875 138.480469 67.15625 138.113281 66.980469 137.757812 C 66.804688 137.40625 66.597656 137.074219 66.355469 136.765625 C 66.113281 136.453125 65.84375 136.167969 65.546875 135.910156 C 65.25 135.652344 64.929688 135.425781 64.585938 135.230469 C 64.246094 135.035156 63.886719 134.875 63.511719 134.75 C 63.140625 134.625 62.757812 134.539062 62.367188 134.488281 C 61.976562 134.441406 61.582031 134.429688 61.191406 134.457031 C 60.796875 134.484375 60.410156 134.550781 60.03125 134.65625 C 59.652344 134.761719 59.285156 134.898438 58.933594 135.078125 Z M 58.933594 135.078125 "/><path style=" stroke:none;fill-rule:nonzero;fill:#000000;fill-opacity:1;" d="M 58.933594 73.902344 C 59.285156 74.078125 59.652344 74.21875 60.03125 74.320312 C 60.410156 74.425781 60.796875 74.492188 61.1875 74.519531 C 61.582031 74.546875 61.972656 74.535156 62.363281 74.484375 C 62.753906 74.4375 63.136719 74.347656 63.511719 74.222656 C 63.882812 74.101562 64.242188 73.941406 64.585938 73.746094 C 64.925781 73.550781 65.246094 73.324219 65.542969 73.066406 C 65.839844 72.804688 66.109375 72.523438 66.351562 72.210938 C 66.59375 71.898438 66.800781 71.566406 66.976562 71.214844 C 67.152344 70.863281 67.292969 70.496094 67.398438 70.117188 C 67.5 69.738281 67.566406 69.351562 67.59375 68.957031 C 67.621094 68.566406 67.609375 68.171875 67.5625 67.78125 C 67.511719 67.390625 67.425781 67.011719 67.300781 66.636719 C 67.175781 66.261719 67.015625 65.90625 66.820312 65.5625 C 66.625 65.222656 66.398438 64.902344 66.140625 64.605469 C 65.882812 64.308594 65.597656 64.039062 65.285156 63.796875 C 64.976562 63.554688 64.644531 63.347656 64.292969 63.171875 L 28.324219 45.1875 C 27.972656 45.011719 27.605469 44.871094 27.226562 44.765625 C 26.84375 44.664062 26.460938 44.597656 26.066406 44.570312 C 25.671875 44.542969 25.28125 44.550781 24.890625 44.601562 C 24.5 44.652344 24.117188 44.738281 23.746094 44.863281 C 23.371094 44.988281 23.011719 45.148438 22.671875 45.34375 C 22.328125 45.539062 22.011719 45.765625 21.710938 46.023438 C 21.414062 46.28125 21.144531 46.566406 20.90625 46.875 C 20.664062 47.1875 20.453125 47.519531 20.277344 47.871094 C 20.101562 48.222656 19.960938 48.589844 19.859375 48.96875 C 19.753906 49.351562 19.6875 49.738281 19.660156 50.128906 C 19.632812 50.523438 19.644531 50.914062 19.695312 51.304688 C 19.742188 51.695312 19.832031 52.078125 19.957031 52.449219 C 20.078125 52.824219 20.238281 53.183594 20.433594 53.523438 C 20.628906 53.867188 20.855469 54.1875 21.113281 54.484375 C 21.375 54.78125 21.65625 55.050781 21.96875 55.292969 C 22.28125 55.53125 22.613281 55.742188 22.964844 55.917969 Z M 58.933594 73.902344 "/></g></svg>