<svg xmlns="http://www.w3.org/2000/svg" xmlns:xlink="http://www.w3.org/1999/xlink" width="500" zoomAndPan="magnify" viewBox="0 0 375 374.999991" height="500" preserveAspectRatio="xMidYMid meet" version="1.2"><g id="a4362f14a8"><path style=" stroke:none;fill-rule:nonzero;fill:#000000;fill-opacity:1;" d="M 187.5 12.097656 C 90.796875 12.097656 12.097656 90.773438 12.097656 187.5 C 12.097656 284.203125 90.796875 362.902344 187.5 362.902344 C 284.203125 362.902344 362.902344 284.203125 362.902344 187.5 C 362.902344 90.773438 284.203125 12.097656 187.5 12.097656 Z M 187.5 375 C 84.109375 375 0 290.890625 0 187.5 C 0 84.109375 84.109375 0 187.5 0 C 290.890625 0 375 84.109375 375 187.5 C 375 290.890625 290.890625 375 187.5 375 "/><path style=" stroke:none;fill-rule:nonzero;fill:#000000;fill-opacity:1;" d="M 205.644531 54.433594 C 192.296875 54.433594 181.453125 65.28125 181.453125 78.628906 C 181.453125 91.976562 192.296875 102.824219 205.644531 102.824219 C 218.992188 102.824219 229.839844 91.976562 229.839844 78.628906 C 229.839844 65.28125 218.992188 54.433594 205.644531 54.433594 Z M 205.644531 114.917969 C 185.632812 114.917969 169.355469 98.640625 169.355469 78.628906 C 169.355469 58.617188 185.632812 42.339844 205.644531 42.339844 C 225.65625 42.339844 241.933594 58.617188 241.933594 78.628906 C 241.933594 98.640625 225.65625 114.917969 205.644531 114.917969 "/><path style=" stroke:none;fill-rule:nonzero;fill:#000000;fill-opacity:1;" d="M 156.597656 162.976562 C 159.808594 162.976562 162.691406 163.660156 165.101562 165.457031 C 167.15625 166.992188 169.613281 169.96875 169.613281 175.402344 C 169.613281 177.8125 168.644531 181.050781 166.234375 188.824219 C 160.992188 205.785156 151.210938 237.328125 151.210938 272.175781 C 151.210938 286.824219 161.863281 302.417969 181.617188 302.417969 C 213.441406 302.417969 232.296875 292.683594 239.335938 283.566406 C 241.109375 281.25 241.722656 279.523438 241.886719 278.53125 C 222.300781 285.503906 208.386719 286.234375 200.472656 280.707031 C 197.304688 278.484375 193.546875 274.160156 193.546875 266.128906 C 193.546875 228.160156 204.746094 193.855469 212.191406 171.125 C 215.046875 162.386719 217.742188 154.117188 217.742188 151.210938 C 217.742188 140.292969 200.894531 139.113281 193.644531 139.113281 C 165.621094 139.113281 134.90625 159.953125 128.269531 169.308594 C 130.960938 169.070312 135.332031 167.773438 139.253906 166.613281 C 145.445312 164.746094 151.445312 162.976562 156.597656 162.976562 Z M 181.617188 314.515625 C 155.011719 314.515625 139.113281 292.992188 139.113281 272.175781 C 139.113281 235.507812 149.226562 202.808594 154.683594 185.253906 C 156.003906 180.90625 157.398438 176.417969 157.519531 175.238281 C 157.519531 175.191406 157.519531 175.144531 157.519531 175.097656 C 154.777344 174.601562 147.003906 176.914062 142.703125 178.191406 C 137.105469 179.867188 131.789062 181.453125 127.488281 181.453125 C 115.535156 181.453125 114.917969 173.253906 114.917969 171.597656 C 114.917969 155.0625 159.667969 127.015625 193.644531 127.015625 C 216.324219 127.015625 229.839844 136.066406 229.839844 151.210938 C 229.839844 156.054688 227.382812 163.542969 223.671875 174.882812 C 216.488281 196.878906 205.644531 230.097656 205.644531 266.128906 C 205.644531 269.554688 206.898438 270.429688 207.417969 270.808594 C 208.597656 271.609375 215.519531 275.25 238.652344 266.835938 C 239.972656 266.367188 240.660156 266.128906 241.769531 266.128906 C 248.976562 266.128906 254.03125 270.996094 254.03125 277.964844 C 254.03125 286.210938 246.992188 295.519531 235.628906 302.253906 C 226.199219 307.851562 209.1875 314.515625 181.617188 314.515625 "/></g></svg>