<svg xmlns="http://www.w3.org/2000/svg" xmlns:xlink="http://www.w3.org/1999/xlink" width="400" zoomAndPan="magnify" viewBox="0 0 300 299.999988" height="400" preserveAspectRatio="xMidYMid meet" version="1.2"><defs><clipPath id="2530064038"><path d="M 1 172 L 105 172 L 105 264.75 L 1 264.75 Z M 1 172 "/></clipPath><filter x="0%" y="0%" width="100%" filterUnits="objectBoundingBox" id="f891d13e9c" height="100%"><feColorMatrix values="0 0 0 0 1 0 0 0 0 1 0 0 0 0 1 0 0 0 1 0" type="matrix" in="SourceGraphic"/></filter><clipPath id="6aac3bec3c"><path d="M 0.203125 0.203125 L 130 0.203125 L 130 130 L 0.203125 130 Z M 0.203125 0.203125 "/></clipPath><clipPath id="b9aaa355cd"><rect x="0" width="192" y="0" height="192"/></clipPath></defs><g id="a155a8299c"><g clip-rule="nonzero" clip-path="url(#2530064038)"><path style=" stroke:none;fill-rule:nonzero;fill:#2d8e00;fill-opacity:1;" d="M 61.574219 184.214844 C 57.234375 180.804688 52.660156 177.03125 48.339844 172.960938 C 45.492188 174.054688 42.683594 175.222656 39.992188 176.605469 C 25.375 184.121094 13.410156 197.160156 7.15625 212.375 C 0.90625 227.589844 0.257812 245.285156 5.371094 260.921875 C 5.96875 262.757812 7.109375 264.175781 8.269531 264.53125 C 9.074219 264.777344 9.980469 264.519531 10.945312 263.769531 C 12.636719 262.4375 13.34375 260.078125 13.808594 257.945312 C 18.980469 234.226562 38.410156 216.910156 65.777344 211.636719 C 73.035156 210.234375 80.351562 209.351562 87.421875 208.496094 C 93.195312 207.800781 98.8125 207.085938 104.371094 206.160156 C 88.609375 201.367188 74.0625 194.03125 61.574219 184.21875 Z M 61.574219 184.214844 "/></g><path style=" stroke:none;fill-rule:nonzero;fill:#4fcc19;fill-opacity:1;" d="M 288.957031 69.382812 C 285.914062 67.875 282.359375 68.082031 279.671875 69.921875 C 279.03125 70.363281 278.375 70.773438 277.6875 71.203125 C 274.558594 73.160156 271.011719 75.378906 265.867188 82.308594 C 261.089844 88.746094 256.839844 95.734375 253.25 103.066406 C 253.097656 103.371094 252.835938 103.605469 252.507812 103.710938 C 252.183594 103.832031 251.839844 103.804688 251.527344 103.648438 C 249.316406 102.546875 244.8125 100.898438 239.511719 102.125 C 236.160156 102.917969 233.792969 104.574219 232.683594 105.492188 C 230.265625 107.488281 228.820312 109.820312 227.960938 111.828125 C 230.542969 111.542969 233.109375 111.667969 235.628906 112.164062 C 237.964844 112.625 240.207031 113.394531 242.304688 114.460938 C 242.664062 114.644531 242.914062 114.988281 242.984375 115.382812 C 243.503906 118.378906 243.785156 123.050781 242.191406 128.296875 C 240.953125 132.390625 238.953125 135.605469 236.96875 138.007812 C 240.511719 137.046875 243.890625 135.527344 246.898438 133.519531 C 249.882812 131.53125 252.523438 129.066406 254.753906 126.207031 C 255 125.898438 255.375 125.71875 255.765625 125.71875 C 255.828125 125.71875 255.894531 125.722656 255.964844 125.734375 C 256.417969 125.800781 256.804688 126.117188 256.964844 126.558594 C 257.992188 129.347656 258.527344 132.25 258.550781 135.195312 C 258.585938 139.292969 257.632812 142.804688 256.464844 145.550781 C 260.085938 143.652344 265.785156 139.621094 268.382812 132.175781 C 273.648438 120.355469 264.808594 109.847656 264.71875 109.742188 C 264.375 109.335938 264.308594 108.761719 264.566406 108.289062 C 267.742188 102.476562 271.734375 97.230469 276.4375 92.695312 C 283.019531 86.335938 291.089844 81.359375 299.851562 78.230469 C 298.535156 76.328125 295.335938 72.570312 288.957031 69.382812 Z M 288.957031 69.382812 "/><path style=" stroke:none;fill-rule:nonzero;fill:#4fcc19;fill-opacity:1;" d="M 193.019531 71.707031 C 194.625 68.488281 195.695312 65.035156 196.199219 61.457031 C 196.265625 60.996094 196.570312 60.605469 197.007812 60.441406 C 197.441406 60.28125 197.929688 60.363281 198.285156 60.65625 C 200.570312 62.570312 202.472656 64.828125 203.953125 67.367188 C 206.03125 70.914062 206.945312 74.453125 207.292969 77.417969 C 209.542969 73.949219 212.449219 67.675781 210.988281 59.851562 C 209.6875 46.972656 196.804688 42.257812 196.675781 42.207031 C 196.238281 42.050781 195.921875 41.675781 195.839844 41.222656 C 195.816406 41.085938 193.460938 27.761719 189.320312 19.191406 C 186.625 13.59375 183.1875 8.351562 179.101562 3.613281 C 176.976562 1.136719 173.59375 0.0234375 170.265625 0.71875 C 163.273438 2.164062 159.222656 4.988281 157.46875 6.496094 C 173.617188 17.886719 182.914062 40.738281 183.3125 41.734375 C 183.464844 42.113281 183.425781 42.546875 183.203125 42.894531 C 182.984375 43.246094 182.609375 43.464844 182.199219 43.488281 C 179.734375 43.628906 175 44.421875 171.011719 48.144531 C 168.632812 50.371094 167.386719 52.808594 166.757812 54.464844 C 165.652344 57.398438 165.554688 60.136719 165.804688 62.300781 C 167.898438 60.792969 170.183594 59.613281 172.628906 58.78125 C 174.867188 58.023438 177.195312 57.578125 179.558594 57.453125 L 179.621094 57.453125 C 180.003906 57.453125 180.363281 57.625 180.609375 57.917969 C 183.394531 61.28125 185.375 65.296875 186.34375 69.519531 C 187.296875 73.695312 187.164062 77.46875 186.632812 80.539062 C 189.226562 77.949219 191.402344 74.953125 193.019531 71.707031 Z M 193.019531 71.707031 "/><path style=" stroke:none;fill-rule:nonzero;fill:#ff0b06;fill-opacity:1;" d="M 254.117188 149.359375 C 253.988281 149.40625 253.851562 149.421875 253.71875 149.421875 C 253.335938 149.421875 252.96875 149.253906 252.714844 148.941406 C 252.386719 148.527344 252.339844 147.945312 252.617188 147.484375 C 254.179688 144.851562 256.039062 140.585938 255.988281 135.214844 C 255.972656 133.328125 255.722656 131.453125 255.242188 129.621094 C 253.195312 131.925781 250.867188 133.949219 248.316406 135.648438 C 243.890625 138.605469 238.722656 140.582031 233.378906 141.363281 C 232.835938 141.46875 232.273438 141.152344 232.035156 140.640625 C 231.796875 140.132812 231.921875 139.519531 232.339844 139.144531 C 234.777344 136.945312 238.039062 133.15625 239.738281 127.554688 C 241.074219 123.140625 240.960938 119.183594 240.558594 116.460938 C 238.84375 115.648438 237.023438 115.046875 235.136719 114.675781 C 232.226562 114.109375 229.238281 114.105469 226.265625 114.667969 C 225.828125 114.753906 225.378906 114.597656 225.078125 114.265625 C 224.777344 113.929688 224.671875 113.46875 224.800781 113.039062 C 225.285156 111.410156 226.203125 109.332031 227.664062 107.253906 C 225.546875 107.308594 223.417969 107.457031 221.285156 107.8125 C 216.820312 108.558594 212.6875 109.925781 208.648438 111.992188 C 200.894531 115.957031 194.480469 122.003906 187.691406 128.394531 L 186.78125 129.25 C 165.738281 149.066406 138.132812 156.859375 106.972656 151.839844 C 94.75 149.863281 81.917969 146.136719 68.832031 140.773438 C 66.605469 139.859375 63.992188 138.46875 61.230469 136.992188 C 54.796875 133.566406 47.203125 129.515625 40.886719 129.515625 C 38.628906 129.515625 36.539062 130.03125 34.71875 131.273438 C 31.402344 133.527344 30.503906 138.152344 31.085938 141.738281 C 33.585938 157.21875 49.535156 171.492188 63.152344 182.203125 C 87.460938 201.300781 119.683594 211.179688 153.707031 209.96875 C 176.882812 209.164062 209.960938 204.09375 235.90625 184.542969 C 248.8125 174.824219 263.019531 157.703125 265.414062 141.898438 C 260.871094 146.800781 255.53125 148.890625 254.117188 149.355469 Z M 220.964844 123.386719 C 218.816406 125.453125 216.066406 126.757812 213.445312 128.179688 C 209.019531 130.582031 204.835938 133.425781 200.972656 136.652344 C 197.953125 139.179688 195.078125 141.972656 191.554688 143.730469 C 190.699219 144.15625 189.601562 144.5 188.839844 143.917969 C 188.324219 143.527344 188.148438 142.832031 188.117188 142.183594 C 188.019531 140.066406 189.105469 138.082031 190.304688 136.332031 C 194.589844 130.070312 201.527344 123.195312 208.816406 119.5625 C 210.054688 118.945312 211.304688 118.421875 212.550781 118.011719 C 214.84375 117.253906 217.414062 117.070312 219.640625 118 C 221.117188 118.617188 222.519531 120.066406 222.144531 121.625 C 221.976562 122.324219 221.484375 122.890625 220.964844 123.390625 Z M 220.964844 123.386719 "/><path style=" stroke:none;fill-rule:nonzero;fill:#2d8e00;fill-opacity:1;" d="M 212.980469 70.925781 C 211.34375 76.8125 208.085938 80.8125 207.152344 81.859375 C 206.796875 82.253906 206.226562 82.394531 205.730469 82.195312 C 205.230469 82 204.90625 81.519531 204.914062 80.984375 C 204.964844 77.917969 204.453125 73.292969 201.742188 68.65625 C 200.792969 67.03125 199.648438 65.527344 198.320312 64.175781 C 197.691406 67.183594 196.683594 70.09375 195.308594 72.847656 C 192.933594 77.625 189.425781 81.90625 185.179688 85.238281 C 184.949219 85.417969 184.667969 85.507812 184.390625 85.507812 C 184.132812 85.507812 183.875 85.433594 183.652344 85.273438 C 183.1875 84.949219 182.992188 84.363281 183.171875 83.828125 C 184.203125 80.71875 185.15625 75.8125 183.835938 70.089844 C 183.011719 66.464844 181.355469 63.011719 179.039062 60.058594 C 177.132812 60.210938 175.257812 60.597656 173.445312 61.207031 C 170.621094 62.164062 168.035156 63.648438 165.753906 65.605469 C 165.414062 65.90625 164.941406 65.996094 164.523438 65.847656 C 164.097656 65.714844 163.777344 65.363281 163.671875 64.929688 C 163.523438 64.308594 163.398438 63.59375 163.296875 62.832031 C 161.875 63.75 160.476562 64.722656 159.144531 65.8125 C 155.636719 68.683594 152.730469 71.925781 150.25 75.734375 C 145.488281 83.027344 142.921875 91.46875 140.203125 100.410156 L 139.847656 101.585938 C 134.996094 117.53125 126.585938 131.167969 116.171875 139.972656 C 112.832031 142.796875 109.058594 145.839844 104.953125 148.835938 C 105.757812 148.980469 106.582031 149.183594 107.378906 149.3125 C 137.730469 154.226562 164.582031 146.636719 185.027344 127.390625 L 185.933594 126.535156 C 192.863281 120.007812 199.402344 113.84375 207.472656 109.714844 L 207.480469 109.714844 C 210.078125 108.382812 212.75 107.414062 215.480469 106.613281 C 215.796875 104.992188 216.179688 103.394531 216.414062 101.746094 C 217.226562 96.046875 218.417969 81.996094 212.980469 70.929688 Z M 168.023438 78.40625 C 167.070312 81.234375 165.230469 83.660156 163.5625 86.132812 C 160.75 90.308594 158.347656 94.761719 156.414062 99.414062 C 154.898438 103.046875 153.636719 106.855469 151.324219 110.039062 C 150.761719 110.816406 149.949219 111.625 149.003906 111.464844 C 148.363281 111.355469 147.886719 110.816406 147.5625 110.257812 C 146.496094 108.425781 146.546875 106.164062 146.800781 104.054688 C 147.714844 96.523438 150.695312 87.21875 155.484375 80.625 C 156.296875 79.507812 157.164062 78.464844 158.082031 77.523438 C 159.765625 75.792969 161.957031 74.445312 164.363281 74.238281 C 165.957031 74.101562 167.871094 74.742188 168.257812 76.296875 C 168.429688 76.992188 168.253906 77.726562 168.023438 78.40625 Z M 168.023438 78.40625 "/><g mask="url(#10fd5313fa)" transform="matrix(1,0,0,1,108,108)"><g clip-path="url(#b9aaa355cd)"><path style=" stroke:none;fill-rule:nonzero;fill:#90a4ae;fill-opacity:1;" d="M 97.40625 109.1875 L 109.15625 97.4375 L 135.839844 124.121094 L 124.089844 135.871094 Z M 97.40625 109.1875 "/><path style=" stroke:none;fill-rule:nonzero;fill:#bbdefb;fill-opacity:1;" d="M 120.445312 64.722656 C 120.445312 66.546875 120.355469 68.367188 120.175781 70.183594 C 120 72 119.730469 73.804688 119.375 75.59375 C 119.019531 77.382812 118.574219 79.152344 118.046875 80.898438 C 117.515625 82.644531 116.902344 84.359375 116.203125 86.046875 C 115.503906 87.734375 114.726562 89.382812 113.867188 90.992188 C 113.003906 92.601562 112.070312 94.164062 111.054688 95.679688 C 110.039062 97.199219 108.953125 98.664062 107.796875 100.074219 C 106.640625 101.484375 105.414062 102.835938 104.125 104.125 C 102.835938 105.414062 101.484375 106.640625 100.074219 107.796875 C 98.664062 108.953125 97.199219 110.039062 95.679688 111.054688 C 94.164062 112.070312 92.601562 113.003906 90.992188 113.867188 C 89.382812 114.726562 87.734375 115.503906 86.046875 116.203125 C 84.359375 116.902344 82.644531 117.515625 80.898438 118.046875 C 79.152344 118.574219 77.382812 119.019531 75.59375 119.375 C 73.804688 119.730469 72 120 70.183594 120.175781 C 68.367188 120.355469 66.546875 120.445312 64.722656 120.445312 C 62.898438 120.445312 61.078125 120.355469 59.261719 120.175781 C 57.445312 120 55.640625 119.730469 53.851562 119.375 C 52.0625 119.019531 50.292969 118.574219 48.546875 118.046875 C 46.800781 117.515625 45.085938 116.902344 43.398438 116.203125 C 41.710938 115.503906 40.066406 114.726562 38.457031 113.867188 C 36.84375 113.003906 35.28125 112.070312 33.765625 111.054688 C 32.246094 110.039062 30.78125 108.953125 29.371094 107.796875 C 27.960938 106.640625 26.609375 105.414062 25.320312 104.125 C 24.03125 102.835938 22.804688 101.484375 21.648438 100.074219 C 20.492188 98.664062 19.40625 97.199219 18.390625 95.679688 C 17.375 94.164062 16.441406 92.601562 15.578125 90.992188 C 14.71875 89.382812 13.941406 87.734375 13.242188 86.046875 C 12.542969 84.359375 11.929688 82.644531 11.398438 80.898438 C 10.871094 79.152344 10.425781 77.382812 10.070312 75.59375 C 9.714844 73.804688 9.445312 72 9.269531 70.183594 C 9.089844 68.367188 9 66.546875 9 64.722656 C 9 62.898438 9.089844 61.078125 9.269531 59.261719 C 9.445312 57.445312 9.714844 55.640625 10.070312 53.851562 C 10.425781 52.0625 10.871094 50.292969 11.398438 48.546875 C 11.929688 46.800781 12.542969 45.085938 13.242188 43.398438 C 13.941406 41.710938 14.71875 40.066406 15.578125 38.457031 C 16.441406 36.84375 17.375 35.28125 18.390625 33.765625 C 19.40625 32.246094 20.492188 30.78125 21.648438 29.371094 C 22.804688 27.960938 24.03125 26.609375 25.320312 25.320312 C 26.609375 24.03125 27.960938 22.804688 29.371094 21.648438 C 30.78125 20.492188 32.246094 19.40625 33.765625 18.390625 C 35.28125 17.375 36.84375 16.441406 38.457031 15.578125 C 40.066406 14.71875 41.710938 13.941406 43.398438 13.242188 C 45.085938 12.542969 46.800781 11.929688 48.546875 11.398438 C 50.292969 10.871094 52.0625 10.425781 53.851562 10.070312 C 55.640625 9.714844 57.445312 9.445312 59.261719 9.269531 C 61.078125 9.089844 62.898438 9 64.722656 9 C 66.546875 9 68.367188 9.089844 70.183594 9.269531 C 72 9.445312 73.804688 9.714844 75.59375 10.070312 C 77.382812 10.425781 79.152344 10.871094 80.898438 11.398438 C 82.644531 11.929688 84.359375 12.542969 86.046875 13.242188 C 87.734375 13.941406 89.382812 14.71875 90.992188 15.578125 C 92.601562 16.441406 94.164062 17.375 95.679688 18.390625 C 97.199219 19.40625 98.664062 20.492188 100.074219 21.648438 C 101.484375 22.804688 102.835938 24.03125 104.125 25.320312 C 105.414062 26.609375 106.640625 27.960938 107.796875 29.371094 C 108.953125 30.78125 110.039062 32.246094 111.054688 33.765625 C 112.070312 35.28125 113.003906 36.84375 113.867188 38.457031 C 114.726562 40.066406 115.503906 41.710938 116.203125 43.398438 C 116.902344 45.085938 117.515625 46.800781 118.046875 48.546875 C 118.574219 50.292969 119.019531 52.0625 119.375 53.851562 C 119.730469 55.640625 120 57.445312 120.175781 59.261719 C 120.355469 61.078125 120.445312 62.898438 120.445312 64.722656 Z M 120.445312 64.722656 "/><path style=" stroke:none;fill-rule:nonzero;fill:#ffffff;fill-opacity:1;" d="M 64.722656 27.574219 C 83.296875 27.574219 100.308594 38.132812 108.519531 54.945312 C 103.238281 30.703125 79.191406 15.453125 54.945312 20.925781 C 37.9375 24.640625 24.640625 37.9375 20.925781 54.945312 C 29.136719 38.132812 46.148438 27.574219 64.722656 27.574219 Z M 64.722656 27.574219 "/><g clip-rule="nonzero" clip-path="url(#6aac3bec3c)"><path style=" stroke:none;fill-rule:nonzero;fill:#90a4ae;fill-opacity:1;" d="M 64.722656 129.242188 C 29.136719 129.242188 0.203125 100.308594 0.203125 64.722656 C 0.203125 29.136719 29.136719 0.203125 64.722656 0.203125 C 100.308594 0.203125 129.242188 29.136719 129.242188 64.722656 C 129.242188 100.308594 100.308594 129.242188 64.722656 129.242188 Z M 64.722656 11.933594 C 35.589844 11.933594 11.933594 35.589844 11.933594 64.722656 C 11.933594 93.855469 35.589844 117.511719 64.722656 117.511719 C 93.855469 117.511719 117.511719 93.855469 117.511719 64.722656 C 117.511719 35.589844 93.855469 11.933594 64.722656 11.933594 Z M 64.722656 11.933594 "/></g><path style=" stroke:none;fill-rule:nonzero;fill:#37474f;fill-opacity:1;" d="M 190.441406 168.542969 L 134.914062 118.492188 C 133.351562 117.121094 130.808594 117.121094 129.242188 118.6875 L 118.6875 129.242188 C 117.121094 130.808594 117.121094 133.351562 118.492188 134.914062 L 168.542969 190.441406 C 170.109375 192.203125 172.648438 192.203125 174.410156 190.832031 C 174.410156 190.832031 174.605469 190.636719 174.605469 190.636719 L 190.636719 174.605469 C 192.203125 172.84375 192.203125 170.304688 190.441406 168.542969 C 190.636719 168.738281 190.441406 168.542969 190.441406 168.542969 Z M 190.441406 168.542969 "/><path style=" stroke:none;fill-rule:nonzero;fill:#b0bec5;fill-opacity:1;" d="M 108.519531 121.03125 C 107.933594 121.03125 107.542969 120.640625 107.542969 120.054688 C 107.542969 119.859375 107.738281 119.46875 107.738281 119.273438 L 119.46875 107.542969 C 119.859375 107.152344 120.445312 107.152344 120.835938 107.542969 C 121.226562 107.933594 121.226562 108.519531 120.835938 108.910156 L 109.105469 120.640625 C 108.910156 120.835938 108.714844 121.03125 108.519531 121.03125 Z M 108.519531 121.03125 "/><path style=" stroke:none;fill-rule:nonzero;fill:#b0bec5;fill-opacity:1;" d="M 116.144531 130.613281 C 114.582031 130.613281 113.210938 129.242188 113.210938 127.679688 C 113.210938 126.898438 113.601562 126.117188 113.992188 125.527344 L 125.726562 113.796875 C 126.898438 112.625 128.65625 112.625 129.832031 113.796875 C 131.003906 114.972656 131.003906 116.730469 129.832031 117.902344 L 118.097656 129.636719 C 117.707031 130.417969 116.925781 130.613281 116.144531 130.613281 Z M 116.144531 130.613281 "/></g><mask id="10fd5313fa"><g filter="url(#f891d13e9c)"><rect x="0" width="300" y="0" height="299.999988" style="fill:#000000;fill-opacity:0.75;stroke:none;"/></g></mask></g></g></svg>