<svg xmlns="http://www.w3.org/2000/svg" xmlns:xlink="http://www.w3.org/1999/xlink" width="500" zoomAndPan="magnify" viewBox="0 0 375 374.999991" height="500" preserveAspectRatio="xMidYMid meet" version="1.2"><defs><clipPath id="74b43a47b1"><path d="M 25.078125 0 L 349.828125 0 L 349.828125 375 L 25.078125 375 Z M 25.078125 0 "/></clipPath></defs><g id="550b122d61"><g clip-rule="nonzero" clip-path="url(#74b43a47b1)"><path style=" stroke:none;fill-rule:nonzero;fill:#000000;fill-opacity:1;" d="M 231.167969 362.3125 C 172.621094 362.3125 125 314.691406 125 256.144531 C 125 197.59375 172.621094 149.976562 231.167969 149.976562 C 289.71875 149.976562 337.335938 197.59375 337.335938 256.144531 C 337.335938 314.691406 289.71875 362.3125 231.167969 362.3125 Z M 43.8125 312.351562 C 40.375 312.351562 37.570312 309.542969 37.570312 306.105469 L 37.570312 18.824219 C 37.570312 15.386719 40.375 12.582031 43.8125 12.582031 L 193.699219 12.53125 L 193.699219 12.605469 C 197.136719 12.605469 199.945312 15.410156 199.945312 18.824219 L 199.945312 56.296875 C 199.945312 66.640625 208.335938 75.03125 218.679688 75.03125 L 256.148438 75.03125 C 259.589844 75.03125 262.394531 77.8125 262.394531 81.253906 C 262.394531 81.253906 262.394531 81.253906 262.394531 81.277344 L 262.394531 141.800781 C 252.441406 139.070312 241.976562 137.484375 231.167969 137.484375 C 165.742188 137.484375 112.511719 190.714844 112.511719 256.144531 C 112.511719 276.464844 117.660156 295.613281 126.707031 312.351562 Z M 253.5625 62.542969 L 218.679688 62.542969 C 215.238281 62.542969 212.433594 59.738281 212.433594 56.296875 L 212.433594 21.410156 Z M 274.886719 145.925781 L 274.886719 80.960938 C 274.886719 80.496094 274.863281 79.984375 274.8125 79.472656 C 274.496094 70.664062 270.738281 62.054688 264.445312 55.761719 L 219.214844 10.53125 C 212.847656 4.164062 204.40625 0.480469 195.453125 0.164062 C 194.96875 0.113281 194.382812 0.0898438 193.699219 0.0898438 L 43.8125 0.0898438 C 33.46875 0.0898438 25.078125 8.480469 25.078125 18.824219 L 25.078125 306.105469 C 25.078125 316.449219 33.46875 324.839844 43.8125 324.839844 L 134.589844 324.839844 C 156.128906 355.015625 191.355469 374.800781 231.167969 374.800781 C 296.597656 374.800781 349.828125 321.570312 349.828125 256.144531 C 349.828125 206.15625 318.722656 163.390625 274.886719 145.925781 "/></g><path style=" stroke:none;fill-rule:nonzero;fill:#000000;fill-opacity:1;" d="M 231.167969 174.957031 C 189.234375 174.957031 154.640625 206.914062 150.421875 247.75 L 148.152344 245.480469 C 145.710938 243.042969 141.761719 243.042969 139.320312 245.480469 C 136.882812 247.921875 136.882812 251.875 139.320312 254.3125 L 151.8125 266.804688 C 153.03125 268.023438 154.617188 268.632812 156.226562 268.632812 C 157.835938 268.632812 159.421875 268.023438 160.644531 266.804688 L 173.132812 254.3125 C 175.574219 251.875 175.574219 247.921875 173.132812 245.480469 C 170.695312 243.042969 166.742188 243.042969 164.300781 245.480469 L 163.230469 246.554688 C 167.914062 213.207031 196.550781 187.445312 231.167969 187.445312 C 269.054688 187.445312 299.867188 218.257812 299.867188 256.144531 C 299.867188 294.027344 269.054688 324.839844 231.167969 324.839844 C 227.730469 324.839844 224.925781 327.644531 224.925781 331.085938 C 224.925781 334.523438 227.730469 337.332031 231.167969 337.332031 C 275.933594 337.332031 312.355469 300.910156 312.355469 256.144531 C 312.355469 211.378906 275.933594 174.957031 231.167969 174.957031 "/><path style=" stroke:none;fill-rule:nonzero;fill:#000000;fill-opacity:1;" d="M 231.167969 206.179688 C 227.730469 206.179688 224.925781 208.988281 224.925781 212.425781 L 224.925781 256.144531 C 224.925781 259.023438 226.875 261.511719 229.65625 262.191406 L 254.636719 268.4375 C 255.148438 268.558594 255.664062 268.632812 256.148438 268.632812 C 258.957031 268.632812 261.492188 266.753906 262.199219 263.902344 C 263.054688 260.558594 261.003906 257.167969 257.664062 256.339844 L 237.414062 251.265625 L 237.414062 212.425781 C 237.414062 208.988281 234.609375 206.179688 231.167969 206.179688 "/></g></svg>